<?xml version="1.0" encoding="UTF-8"?>
<!DOCTYPE svg PUBLIC "-//W3C//DTD SVG 1.1//EN" "http://www.w3.org/Graphics/SVG/1.1/DTD/svg11.dtd">
<!-- Creator: CorelDRAW -->
<svg xmlns="http://www.w3.org/2000/svg" xml:space="preserve" width="70.8713mm" height="32.975mm" style="shape-rendering:geometricPrecision; text-rendering:geometricPrecision; image-rendering:optimizeQuality; fill-rule:evenodd; clip-rule:evenodd"
viewBox="0 0 70.0938 32.6133"
 xmlns:xlink="http://www.w3.org/1999/xlink">
 <defs>
  <style type="text/css">
   <![CDATA[
    .fil0 {fill:#007CC3;fill-rule:nonzero}
   ]]>
  </style>
 </defs>
 <g id="Layer_x0020_1">
  <metadata id="CorelCorpID_0Corel-Layer"/>
  <g id="_151750352">
   <g>
    <path id="_681973904" class="fil0" d="M9.53415 11.1734l-1.27436 -4.72855 -1.29177 4.73122 0 0.00543966c-0.0741772,0.263082 -0.144003,0.501141 -0.211257,0.717442 -0.064188,0.206707 -0.121848,0.377414 -0.17397,0.512219l0 0.00098903c-0.0157256,0.0417371 -0.0369897,0.0908918 -0.063199,0.146871 -0.025517,0.0546933 -0.0502427,0.102463 -0.0737816,0.144201 -0.132431,0.233708 -0.310753,0.446151 -0.534175,0.633177l-9.8903e-005 -9.8903e-005 -0.00128574 0.00128574c-0.0541988,0.0452976 -0.108793,0.0860456 -0.16319,0.121651 -0.0497482,0.032638 -0.108002,0.0660672 -0.174564,0.0997931 -0.289489,0.147069 -0.622298,0.221543 -0.994766,0.221543 -0.195927,0 -0.383249,-0.0202751 -0.562461,-0.0607264 -0.191179,-0.0431217 -0.364754,-0.109683 -0.520724,-0.198696l-0.00613198 -0.00365941 -0.000296709 0.000395612c-0.0440118,-0.025517 -0.0849577,-0.0513306 -0.122046,-0.0767487 -0.0380776,-0.0261104 -0.0773421,-0.0553857 -0.117596,-0.0878258 -0.188113,-0.150827 -0.347248,-0.337556 -0.477108,-0.558208 -0.0787268,-0.133519 -0.148651,-0.275939 -0.209279,-0.426766 -0.0610231,-0.151717 -0.113343,-0.309171 -0.15686,-0.472064l0.00108793 -0.000296709c-0.066265,-0.237565 -0.128079,-0.476515 -0.18485,-0.696079l-0.0227477 -0.0878258 -0.00267038 -0.00811004 -1.99517 -8.06979 -0.000593418 0.000197806 -0.000494515 -0.00217587 -0.000692321 0.000197806c-0.013253,-0.0521219 -0.0298687,-0.120068 -0.0493526,-0.203443 -0.00919798,-0.0395612 -0.02344,-0.104343 -0.0421327,-0.19296 -0.0720014,-0.342402 -0.107606,-0.62299 -0.107606,-0.84117l0 -0.00168135 0.00267038 0c0.000296709,-0.249137 0.044803,-0.480471 0.13342,-0.692914 0.0180992,-0.0433195 0.0341215,-0.0788257 0.0476712,-0.106123 0.0854522,-0.171003 0.201268,-0.328358 0.347051,-0.471668l-0.00138464 -0.00138464 0.00118684 -0.00118684 0.00811004 -0.00543966c0.0451987,-0.0440118 0.0959359,-0.0879247 0.151322,-0.131343 0.0567703,-0.0443085 0.112255,-0.0833752 0.165662,-0.116112l0.000494515 0.000791224c0.290775,-0.178421 0.615572,-0.26773 0.972117,-0.26773l0.00187916 0 0 0.00267038c0.327468,0.000197806 0.611418,0.0578582 0.850664,0.171696 0.0323413,0.0154289 0.0747706,0.0388689 0.126596,0.0698255 0.222136,0.133321 0.395612,0.314511 0.519834,0.542384l0.00267038 0.00543966 0.000791224 0.00148354 0.00276928 0.00267038c0.0216598,0.0409458 0.0480668,0.0955403 0.078529,0.1623l0.00267038 0.00267038c0.0146376,0.0322424 0.0386711,0.0901995 0.0710123,0.171696l0.00276928 0c0.113145,0.28583 0.216499,0.644946 0.308281,1.07962l-0.000197806 9.8903e-005 0.954809 4.25174 1.03126 -3.8403 0.00197806 0.000494515c0.0480668,-0.187421 0.033627,-0.138266 0.0519241,-0.207004 0.0125607,-0.0470778 0.0310555,-0.113837 0.0545944,-0.197608 0.0913863,-0.325885 0.18119,-0.598759 0.267533,-0.816048l0 -0.00276928c0.0769465,-0.190289 0.174168,-0.364952 0.292357,-0.523197 0.116112,-0.155475 0.256357,-0.300072 0.421129,-0.433591l0.000296709 0.000296709c0.190092,-0.155673 0.407579,-0.270005 0.652562,-0.343292 0.225697,-0.0675507 0.472262,-0.101277 0.739992,-0.101277l0.00237367 0 0 0.00267038c0.277225,0.000197806 0.527153,0.0355062 0.748003,0.105035 0.029572,0.00929688 0.068342,0.0233411 0.115618,0.0415392l0.000593418 -0.00158245c0.199982,0.0767487 0.378996,0.184058 0.536549,0.321534l0.000197806 -0.000197806 0.00148354 0.00128574 0.00543966 0.00267038c0.0297698,0.0262093 0.0687376,0.0630012 0.117793,0.111365 0.0319457,0.0314511 0.0695288,0.0715069 0.112255,0.119178 0.19385,0.216696 0.336666,0.44803 0.429536,0.691727l0 0.00534076 0.000593418 0.00158245 0.00276928 0.00276928c0.0192861,0.0523197 0.0334292,0.0914853 0.0435173,0.121057l0.0437151 0.136585 0.000791224 -0.000296709c0.071309,0.219664 0.164377,0.538725 0.279302,0.959062l0.00267038 0.00267038 1.04264 3.85197 0.959853 -4.27429 0.000197806 0c0.0425283,-0.205817 0.0804081,-0.374941 0.113541,-0.50579 0.0381765,-0.150926 0.0788257,-0.290082 0.12175,-0.417667l-0.00098903 -0.000296709c0.0156267,-0.0479679 0.03155,-0.0920787 0.0474734,-0.131442 0.0099892,-0.0249235 0.0296709,-0.0667595 0.0582539,-0.12531l-0.00227477 -0.00108793c0.101573,-0.208389 0.24162,-0.401052 0.417964,-0.574428 0.159728,-0.157058 0.349029,-0.272478 0.568791,-0.346754 0.19019,-0.0643858 0.403623,-0.0962326 0.641089,-0.0962326l0 -0.00267038 0.00178025 0 0 0.00267038c0.247455,0.000296709 0.477009,0.0424294 0.687969,0.125508l0.00267038 0c0.0228466,0.00900017 0.0564736,0.0239345 0.105035,0.0467811 0.175256,0.082584 0.336072,0.193454 0.482449,0.332413l-9.8903e-005 9.8903e-005 0.00128574 0.00098903c0.0416382,0.0395612 0.0872324,0.0884193 0.135992,0.146277l0.00128574 -0.00108793c0.0433195,0.0512317 0.0841664,0.105529 0.121848,0.162201 0.191377,0.288005 0.288104,0.614583 0.288104,0.978942 0,0.145387 -0.0182971,0.328457 -0.055089,0.550098 -0.0310555,0.186828 -0.0794191,0.414799 -0.14519,0.684112l0 0.00267038 -1.99576 8.07226 -0.000593418 -0.000197806 -0.000296709 0.00118684 0 0.00534076 -0.0587484 0.225103 -0.0534076 0.208092c-0.0908918,0.339039 -0.173476,0.612902 -0.246367,0.820103l0 0.00267038c-0.0642869,0.182575 -0.153003,0.355655 -0.265653,0.518548 -0.107705,0.15597 -0.23707,0.300171 -0.38681,0.432503l-0.000197806 -0.000197806c-0.182872,0.163091 -0.396502,0.282863 -0.640693,0.359512 -0.21551,0.0675507 -0.458613,0.101277 -0.728915,0.101277l0 0.00267038 -0.00237367 0 0 -0.00267038c-0.257247,-0.000197806 -0.492438,-0.0334292 -0.703695,-0.0994964 -0.0320446,-0.0099892 -0.0688365,-0.0228466 -0.108991,-0.0380776 -0.192663,-0.0731882 -0.365644,-0.173278 -0.517361,-0.299973l-0.000296709 0.000296709c-0.0356051,-0.0294731 -0.0757597,-0.0650782 -0.119475,-0.105925l-0.00267038 -0.00267038c-0.0401546,-0.037682 -0.0782323,-0.0757597 -0.114134,-0.114233l0.00148354 -0.00138464c-0.195828,-0.209773 -0.341611,-0.441008 -0.435371,-0.691826l-0.000593418 -0.00158245c-0.0188905,-0.0507372 -0.0338248,-0.0914853 -0.0440118,-0.120761 -0.0390667,-0.112552 -0.0420338,-0.118585 -0.0482647,-0.137376 -0.0751663,-0.228268 -0.173476,-0.556131 -0.294533,-0.983392l-0.00267038 -0.00811004z"/>
    <path id="_150799672" class="fil0" d="M22.6922 2.1633l0 2.74634 3.85731 0 0 -2.74634 0 -0.00257148 0.00267038 0c0.000197806,-0.31738 0.0373853,-0.598066 0.110771,-0.840873l0.00098903 0.000296709c0.0133519,-0.0442096 0.0272972,-0.0862434 0.0417371,-0.125508l0.00276928 -0.00276928c0.0852544,-0.229455 0.202553,-0.427656 0.351699,-0.593616 0.17674,-0.196916 0.386612,-0.346853 0.629221,-0.449415 0.2344,-0.0991997 0.486405,-0.148849 0.75552,-0.148849l0.00178025 0 0 0.00267038c0.270697,0.000296709 0.521713,0.0470778 0.751663,0.140739l0.000593418 -0.00138464c0.043814,0.0178025 0.0837708,0.0358029 0.119277,0.0535065l-0.000593418 0.00108793c0.19385,0.0961337 0.366732,0.225598 0.517757,0.387897l0.00276928 0.00276928 0.00118684 0.00128574 -0.000197806 9.8903e-005c0.0555835,0.0602319 0.105233,0.121156 0.14786,0.182575 0.0411436,0.059144 0.081595,0.126893 0.120958,0.203048 0.169124,0.326677 0.254576,0.724168 0.254576,1.18901l0 9.44553 -0.00267038 0c0,0.675903 -0.175849,1.20434 -0.527252,1.58156l-0.000296709 -0.000296709 -0.000791224 0.00148354c-0.0426272,0.0455943 -0.0961337,0.095837 -0.15953,0.149838l0 0.00267038c-0.0544955,0.0461877 -0.112057,0.089705 -0.172882,0.129959 -0.308182,0.204235 -0.660672,0.3065 -1.05421,0.3065l-0.00178025 0 0 -0.00267038c-0.275643,-0.000296709 -0.529428,-0.0492537 -0.760465,-0.146871l-0.00267038 0c-0.0278906,-0.0118684 -0.0655727,-0.0299676 -0.113145,-0.0542977 -0.196619,-0.100881 -0.369502,-0.23618 -0.517658,-0.405304 -0.175948,-0.200674 -0.305412,-0.441503 -0.388194,-0.722684 -0.0742761,-0.251708 -0.111464,-0.531603 -0.111464,-0.839884l0 -3.34084 -3.85731 0 0 3.34084c0,0.313819 -0.0394623,0.59777 -0.118288,0.852544 -0.0888149,0.287115 -0.226191,0.529823 -0.411733,0.729014l-0.000296709 -0.000296709 -0.000791224 0.00148354c-0.0426272,0.0455943 -0.0961337,0.095837 -0.15953,0.149838l0 0.00267038c-0.0544955,0.0461877 -0.112057,0.089705 -0.172882,0.129959 -0.308182,0.204235 -0.660672,0.3065 -1.05421,0.3065l-0.00178025 0 0 -0.00267038c-0.275741,-0.000296709 -0.529527,-0.0492537 -0.760366,-0.146871l-0.00267038 0c-0.0278906,-0.0118684 -0.0655727,-0.0299676 -0.113145,-0.0542977 -0.196619,-0.100881 -0.369502,-0.23618 -0.517658,-0.405304 -0.175849,-0.200575 -0.305511,-0.441404 -0.388293,-0.722684 -0.0741772,-0.251708 -0.111365,-0.531702 -0.111365,-0.839884l0 -9.44553 0 -0.00267038 0.00267038 0c0.000197806,-0.312237 0.036693,-0.591242 0.108694,-0.835532 0.0123629,-0.0420338 0.0264071,-0.0847598 0.0420338,-0.127783 0.0814961,-0.225499 0.196125,-0.422711 0.343391,-0.590945l0.00118684 -0.00118684 -9.8903e-005 0c0.047869,-0.0546933 0.10009,-0.107112 0.155772,-0.156563l-0.00128574 -0.00138464c0.0529131,-0.0470778 0.111266,-0.0923754 0.174267,-0.135398 0.302346,-0.206015 0.658694,-0.309171 1.06865,-0.309171l0 -0.00267038 0.00178025 0 0 0.00267038c0.269807,0.000197806 0.520823,0.0473745 0.751465,0.141629l0.000890127 -0.00227477c0.043814,0.0178025 0.0837708,0.0358029 0.119277,0.0535065l-0.000593418 0.00108793c0.19385,0.0961337 0.366732,0.225598 0.517757,0.387897l0.00276928 0.00276928 0.00118684 0.00128574 -0.000197806 9.8903e-005c0.0555835,0.0602319 0.105233,0.121156 0.14786,0.182575 0.0411436,0.059144 0.081595,0.126893 0.120958,0.203048 0.169124,0.326677 0.254576,0.724168 0.254576,1.18901z"/>
    <path id="_151732232" class="fil0" d="M41.3285 3.25757l-4.7786 0 0 1.5601 4.3459 0 0.00267038 0 0 0.00267038c0.25695,0.000197806 0.484328,0.0304621 0.681441,0.0899028 0.0748696,0.022451 0.14697,0.0493526 0.216004,0.080507 0.148058,0.0668584 0.2795,0.152508 0.394029,0.256554l0.00267038 0.00267038c0.16497,0.152212 0.290478,0.329644 0.375238,0.532988 0.081595,0.195729 0.122837,0.406788 0.122837,0.634166 0,0.468503 -0.159728,0.85284 -0.478888,1.16211l-0.0135497 0.0135497 -0.000197806 0.000197806c-0.0436162,0.0403524 -0.0959359,0.0819906 -0.156168,0.124123 -0.0638913,0.0447041 -0.120365,0.0798147 -0.169124,0.105134l-0.00276928 0c-0.269906,0.140146 -0.595297,0.211158 -0.974194,0.211158l-4.3459 0 0 2.02623 4.96562 0 0.00257148 0 0 0.00267038c0.261697,0.000197806 0.496592,0.0327369 0.703596,0.0967271 0.0405502,0.0125607 0.0771443,0.0250225 0.108793,0.0369897 0.19741,0.0748696 0.368611,0.178619 0.512614,0.310061l0 0.00267038c0.174762,0.159728 0.305116,0.345171 0.391557,0.556329 0.0843642,0.205718 0.126002,0.425184 0.126002,0.658298 0,0.232521 -0.0416382,0.449217 -0.126002,0.65088 -0.0863423,0.206509 -0.216103,0.389084 -0.390073,0.548516l0.00118684 0.00128574 -0.00128574 0.00118684 -0.00267038 0.00267038c-0.0464844,0.0422316 -0.0999909,0.0842653 -0.15953,0.12531 -0.0573637,0.0394623 -0.115321,0.0742761 -0.173476,0.104343 -0.27772,0.142915 -0.609242,0.21551 -0.993283,0.21551l-6.59851 0 -0.00267038 0 0 -0.00267038c-0.333896,-0.000197806 -0.628825,-0.0395612 -0.882907,-0.117991 -0.042825,-0.013253 -0.0870346,-0.0284841 -0.132728,-0.0459899l-0.000494515 0.00138464c-0.241027,-0.0920787 -0.446448,-0.223916 -0.615078,-0.394623 -0.194245,-0.196619 -0.336765,-0.444964 -0.427656,-0.744245 -0.0792213,-0.260807 -0.118585,-0.552967 -0.118585,-0.875885l0 -9.01303 0 -0.00385722 0.00267038 0c0.000197806,-0.217587 0.017308,-0.416876 0.0506383,-0.597374 0.00435173,-0.0238356 0.0110771,-0.0556824 0.0191872,-0.0924743 0.0360007,-0.162596 0.0862434,-0.312632 0.150036,-0.449217l-0.00128574 -0.000593418 0.000593418 -0.00128574 0.00276928 -0.00267038c0.0241323,-0.0517263 0.0498471,-0.100288 0.0765509,-0.145783l0 -0.00276928c0.0209674,-0.0356051 0.0514295,-0.0809026 0.0916831,-0.136189 0.168926,-0.232224 0.387502,-0.410348 0.654837,-0.532197 0.168333,-0.0766498 0.350018,-0.13253 0.544461,-0.167146 0.18119,-0.0322424 0.377315,-0.0484625 0.587978,-0.0484625l6.41148 0 0.00267038 0 0 0.00267038c0.264763,0.000197806 0.499262,0.0311544 0.70231,0.0919798 0.0707156,0.0210663 0.143805,0.0487592 0.218477,0.0821884 0.154388,0.069331 0.28939,0.156465 0.404216,0.261104l0.00267038 0.00543966c0.170014,0.157355 0.297401,0.335776 0.381469,0.535955l0 0.00267038c0.0829796,0.198103 0.124914,0.412129 0.124914,0.642573 0,0.230246 -0.0419349,0.445459 -0.124914,0.646133l0 0.00276928c-0.0844631,0.20374 -0.211949,0.383645 -0.381469,0.540604l0 0.00276928 -0.00128574 0.00118684 -0.00534076 0.00267038c-0.0908918,0.0823862 -0.188905,0.152113 -0.293841,0.208586 -0.101573,0.0546933 -0.210367,0.0994964 -0.325786,0.133915 -0.21007,0.0627045 -0.444866,0.0943534 -0.70409,0.0943534z"/>
    <path id="_151731824" class="fil0" d="M68.0617 3.25757l-4.7786 0 0 1.5601 4.3459 0 0.00267038 0 0 0.00267038c0.25695,0.000197806 0.484328,0.0304621 0.681441,0.0899028 0.0748696,0.022451 0.14697,0.0493526 0.216004,0.080507 0.148058,0.0668584 0.2795,0.152508 0.394029,0.256554l0.00267038 0.00267038c0.16497,0.152212 0.290478,0.329644 0.375238,0.532988 0.081595,0.195729 0.122837,0.406788 0.122837,0.634166 0,0.468503 -0.159728,0.85284 -0.478888,1.16211l-0.0135497 0.0135497 -0.000197806 0.000197806c-0.0436162,0.0403524 -0.0959359,0.0819906 -0.156168,0.124123 -0.0638913,0.0447041 -0.120365,0.0798147 -0.169124,0.105134l-0.00276928 0c-0.269906,0.140146 -0.595297,0.211158 -0.974194,0.211158l-4.3459 0 0 2.02623 4.96562 0 0.00257148 0 0 0.00267038c0.261697,0.000197806 0.496592,0.0327369 0.703596,0.0967271 0.0405502,0.0125607 0.0771443,0.0250225 0.108793,0.0369897 0.19741,0.0748696 0.368611,0.178619 0.512614,0.310061l0 0.00267038c0.174762,0.159728 0.305116,0.345171 0.391557,0.556329 0.0843642,0.205718 0.126002,0.425184 0.126002,0.658298 0,0.232521 -0.0416382,0.449217 -0.126002,0.65088 -0.0863423,0.206509 -0.216103,0.389084 -0.390073,0.548516l0.00118684 0.00128574 -0.00128574 0.00118684 -0.00267038 0.00267038c-0.0464844,0.0422316 -0.0999909,0.0842653 -0.15953,0.12531 -0.0573637,0.0394623 -0.115321,0.0742761 -0.173476,0.104343 -0.27772,0.142915 -0.609242,0.21551 -0.993283,0.21551l-6.59851 0 -0.00267038 0 0 -0.00267038c-0.333896,-0.000197806 -0.628825,-0.0395612 -0.882907,-0.117991 -0.042825,-0.013253 -0.0870346,-0.0284841 -0.132728,-0.0459899l-0.000494515 0.00138464c-0.241027,-0.0920787 -0.446448,-0.223916 -0.615078,-0.394623 -0.194245,-0.196619 -0.336765,-0.444964 -0.427656,-0.744245 -0.0792213,-0.260807 -0.118585,-0.552967 -0.118585,-0.875885l0 -9.01303 0 -0.00385722 0.00267038 0c0.000197806,-0.217587 0.017308,-0.416876 0.0506383,-0.597374 0.00435173,-0.0238356 0.0110771,-0.0556824 0.0191872,-0.0924743 0.0360007,-0.162596 0.0862434,-0.312632 0.150036,-0.449217l-0.00128574 -0.000593418 0.000593418 -0.00128574 0.00276928 -0.00267038c0.0241323,-0.0517263 0.0498471,-0.100288 0.0765509,-0.145783l0 -0.00276928c0.0209674,-0.0356051 0.0514295,-0.0809026 0.0916831,-0.136189 0.168926,-0.232224 0.387502,-0.410348 0.654837,-0.532197 0.168333,-0.0766498 0.350018,-0.13253 0.544461,-0.167146 0.18119,-0.0322424 0.377315,-0.0484625 0.587978,-0.0484625l6.41148 0 0.00267038 0 0 0.00267038c0.264763,0.000197806 0.499262,0.0311544 0.70231,0.0919798 0.0707156,0.0210663 0.143805,0.0487592 0.218477,0.0821884 0.154388,0.069331 0.28939,0.156465 0.404216,0.261104l0.00267038 0.00543966c0.170014,0.157355 0.297401,0.335776 0.381469,0.535955l0 0.00267038c0.0829796,0.198103 0.124914,0.412129 0.124914,0.642573 0,0.230246 -0.0419349,0.445459 -0.124914,0.646133l0 0.00276928c-0.0844631,0.20374 -0.211949,0.383645 -0.381469,0.540604l0 0.00276928 -0.00128574 0.00118684 -0.00534076 0.00267038c-0.0908918,0.0823862 -0.188905,0.152113 -0.293841,0.208586 -0.101573,0.0546933 -0.210367,0.0994964 -0.325786,0.133915 -0.21007,0.0627045 -0.444866,0.0943534 -0.70409,0.0943534z"/>
    <path id="_150897336" class="fil0" d="M49.7071 8.24554l-0.159036 0 0 3.15955c0,0.684804 -0.173871,1.21611 -0.521614,1.58996l-0.000296709 -0.000296709 -0.000791224 0.00148354c-0.0500449,0.0537043 -0.102661,0.103947 -0.157355,0.150333 -0.0583528,0.0493526 -0.116409,0.0932655 -0.173773,0.130849l-0.00128574 -0.00197806c-0.306006,0.200971 -0.656122,0.301357 -1.04857,0.301357 -0.597176,0 -1.07557,-0.207696 -1.42618,-0.622891 -0.168333,-0.199487 -0.293247,-0.438536 -0.373853,-0.71764 -0.0727926,-0.252005 -0.109288,-0.529032 -0.109288,-0.831181l0 -9.22508 0 -0.00267038 0.00267038 0c0.000197806,-0.331325 0.0395612,-0.624177 0.117991,-0.876973l0 -0.00267038c0.0108793,-0.0351106 0.026506,-0.0791224 0.0472756,-0.132926l0.000890127 0.000395612c0.0939578,-0.243697 0.222729,-0.447635 0.385722,-0.610627l0.00118684 -0.00118684 0.00267038 0c0.0587484,-0.0586495 0.120958,-0.11176 0.185641,-0.159036 0.0606275,-0.0443085 0.130156,-0.0873313 0.207993,-0.128969 0.328457,-0.175058 0.738311,-0.262686 1.22798,-0.262686l0 -0.00267038 3.94969 0c0.257642,0 0.520922,0.0065276 0.790235,0.0197806 0.261895,0.0128574 0.491943,0.0313522 0.689255,0.0553857l0 0.000296709 0.00247257 0.000296709c0.0367919,0.00425283 0.0980128,0.0131541 0.187322,0.0271983 0.102859,0.0160223 0.162003,0.0258137 0.185443,0.0304621 0.312138,0.06221 0.605682,0.157058 0.879742,0.283159l-0.000395612 0.000890127c0.221839,0.0951447 0.43181,0.210367 0.629814,0.344776 0.206509,0.140244 0.396601,0.298094 0.569978,0.473251l0.00543966 0.00543966c0.177135,0.182278 0.333204,0.377513 0.466822,0.586198 0.135003,0.210564 0.248939,0.436854 0.340523,0.678969l-0.000593418 0.000197806c0.0292753,0.0757597 0.0531109,0.141233 0.071309,0.197015 0.0230444,0.0704189 0.0433195,0.138069 0.0606275,0.202355 0.09376,0.348831 0.140739,0.710024 0.140739,1.08309l0 0.00207696 -0.00267038 0c-0.000197806,0.527746 -0.0757597,1.00594 -0.226883,1.43409 -0.0240334,0.0680452 -0.0517263,0.138563 -0.0827818,0.211257 -0.154981,0.36149 -0.366238,0.684013 -0.633474,0.966678l9.8903e-005 9.8903e-005 -0.00227477 0.00237367 -0.000395612 0.000395612c-0.309171,0.32727 -0.691629,0.603308 -1.14727,0.82851 -0.0586495,0.0289786 -0.118782,0.0568692 -0.179806,0.0842653 0.0975183,0.0969249 0.19385,0.199191 0.288104,0.306204l0 0.00267038c0.212048,0.242312 0.410447,0.488185 0.594011,0.737124 0.179608,0.243697 0.355062,0.505592 0.525768,0.786575 0.169322,0.27861 0.313522,0.530516 0.432008,0.755322 0.128277,0.243005 0.239741,0.475229 0.334094,0.696178l0.00267038 0.00534076c0.0914853,0.218872 0.162992,0.411337 0.213927,0.577198 0.0643858,0.209575 0.0970238,0.384634 0.0970238,0.525274 0,0.293445 -0.0872324,0.573637 -0.261598,0.844829l-0.00267038 0.00543966c-0.0804081,0.122837 -0.179509,0.237169 -0.297401,0.342501 -0.111563,0.0996942 -0.236675,0.185938 -0.375337,0.258631l-0.00543966 0.00534076c-0.1352,0.0687376 -0.284445,0.121156 -0.447932,0.157355 -0.157651,0.0348138 -0.314907,0.0523197 -0.47147,0.0523197 -0.413414,0 -0.778268,-0.105727 -1.0815,-0.316984 -0.123925,-0.0863423 -0.242411,-0.187026 -0.354864,-0.301456 -0.109387,-0.111365 -0.208883,-0.232323 -0.298291,-0.362677 -0.0526164,-0.0766498 -0.136387,-0.206806 -0.250027,-0.388293 -0.115519,-0.184454 -0.220554,-0.355754 -0.315797,-0.514988l-0.969941 -1.61182 -0.00158245 0.00098903 -0.000791224 -0.00128574 -0.00543966 -0.0135497c-0.028583,-0.0486603 -0.0742761,-0.12442 -0.13886,-0.230345 -0.0648804,-0.10642 -0.108694,-0.177135 -0.131937,-0.21363 -0.215312,-0.337655 -0.410348,-0.604989 -0.583725,-0.801609l-0.00128574 0.00118684c-0.112947,-0.126596 -0.21818,-0.22718 -0.315599,-0.30116l-0.00128574 0.00168135c-0.0928699,-0.0704189 -0.180992,-0.122442 -0.263675,-0.155673l-0.00276928 -0.00138464 -9.8903e-005 0.000197806c-0.0202751,-0.00820895 -0.0470778,-0.0177036 -0.0796169,-0.0282863l0.000296709 -0.000890127c-0.0134508,-0.00415392 -0.0431217,-0.0120662 -0.0888149,-0.0236378 -0.176047,-0.0447041 -0.390073,-0.0676496 -0.641089,-0.0676496zm1.39008 -5.03822l-1.54912 0 0 1.91179 1.48206 0 0 0.00267038c0.521713,0 0.957183,-0.0439129 1.30601,-0.13164l-0.000197806 -0.000692321c0.0491548,-0.0124618 0.0885182,-0.0236378 0.117596,-0.0331325 0.0440118,-0.0143409 0.0779355,-0.026506 0.101178,-0.0360007 0.145387,-0.0595396 0.258137,-0.135794 0.337259,-0.227576 0.0405502,-0.0469789 0.0734849,-0.109881 0.0982107,-0.188509 0.0310555,-0.0985074 0.0467811,-0.21907 0.0467811,-0.361985 0,-0.108793 -0.011176,-0.202158 -0.0334292,-0.279599l-0.00276928 0c-0.0228466,-0.0794191 -0.0558802,-0.151519 -0.0988041,-0.215608l-0.00267038 0 -0.000791224 -0.00118684 0 -0.00276928c-0.0099892,-0.0152311 -0.0243301,-0.0345171 -0.041836,-0.0567703l0.00158245 -0.00128574c-0.00741772,-0.00929688 -0.0218576,-0.0253192 -0.0432206,-0.0479679 -0.0793202,-0.0842653 -0.182278,-0.152805 -0.308182,-0.205224l-0.00534076 -0.00267038c-0.0773421,-0.0328358 -0.221839,-0.0606275 -0.432701,-0.0829796 -0.244785,-0.0260115 -0.56889,-0.0388689 -0.971623,-0.0388689z"/>
   </g>
   <path id="_151750304" class="fil0" d="M31.6516 29.8795l0 -9.44553c0,-0.66532 0.172091,-1.18941 0.516175,-1.56771l0.00237367 0 -0.00128574 -0.00118684c0.0456932,-0.0501438 0.0982107,-0.101178 0.157256,-0.152508 0.0505394,-0.0439129 0.107606,-0.0874302 0.170509,-0.130057l0 -0.00267038c0.304423,-0.206114 0.65543,-0.309171 1.05035,-0.309171l0.00178025 0 0 0.00267038c0.270697,0.000296709 0.521713,0.0470778 0.751663,0.140739l0.000593418 -0.00138464c0.043814,0.0178025 0.0837708,0.0358029 0.119277,0.0535065l-0.000593418 0.00108793c0.19385,0.0961337 0.366732,0.225598 0.517757,0.387897l0.00276928 0.00276928 0.00118684 0.00128574 -0.000197806 9.8903e-005c0.0555835,0.0602319 0.105233,0.121156 0.14786,0.182575 0.0411436,0.059144 0.081595,0.126893 0.120958,0.203048 0.169124,0.326677 0.254576,0.724168 0.254576,1.18901l0 9.44553 0 0.00257148 -0.00267038 0c-0.000197806,0.317182 -0.0389678,0.600934 -0.115519,0.849873 -0.0144398,0.0469789 -0.0290775,0.0900017 -0.0436162,0.128475 -0.0871335,0.230543 -0.208191,0.43003 -0.362578,0.597868l-0.00108793 -0.00098903 0 0.00217587c-0.0486603,0.0528142 -0.101771,0.103848 -0.15864,0.152607 -0.0562758,0.0481657 -0.114727,0.0925732 -0.174959,0.132629 -0.306896,0.204235 -0.660177,0.3065 -1.05856,0.3065 -0.268324,0 -0.518746,-0.0497482 -0.750476,-0.149245l0.000395612 -0.00098903c-0.236477,-0.10187 -0.444371,-0.251411 -0.623583,-0.448129 -0.181388,-0.199289 -0.316292,-0.441008 -0.403821,-0.725354 -0.0784301,-0.254576 -0.117892,-0.537241 -0.117892,-0.847994z"/>
   <g>
    <path id="_681981320" class="fil0" d="M9.50903 29.8795l0 -9.44553c0,-0.66532 0.172091,-1.18941 0.516175,-1.56771l0.00237367 0 -0.00128574 -0.00118684c0.0456932,-0.0501438 0.0982107,-0.101178 0.157256,-0.152508 0.0505394,-0.0439129 0.107606,-0.0874302 0.170509,-0.130057l0 -0.00267038c0.304423,-0.206114 0.65543,-0.309171 1.05035,-0.309171l0.00178025 0 0 0.00267038c0.270697,0.000296709 0.521713,0.0470778 0.751663,0.140739l0.000593418 -0.00138464c0.043814,0.0178025 0.0837708,0.0358029 0.119277,0.0535065l-0.000593418 0.00108793c0.19385,0.0961337 0.366732,0.225598 0.517757,0.387897l0.00276928 0.00276928 0.00118684 0.00128574 -0.000197806 9.8903e-005c0.0555835,0.0602319 0.105233,0.121156 0.14786,0.182575 0.0411436,0.059144 0.081595,0.126893 0.120958,0.203048 0.169124,0.326677 0.254576,0.724168 0.254576,1.18901l0 9.44553 0 0.00257148 -0.00267038 0c-0.000197806,0.317182 -0.0389678,0.600934 -0.115519,0.849873 -0.0144398,0.0469789 -0.0290775,0.0900017 -0.0436162,0.128475 -0.0871335,0.230543 -0.208191,0.43003 -0.362578,0.597868l-0.00108793 -0.00098903 0 0.00217587c-0.0486603,0.0528142 -0.101771,0.103848 -0.15864,0.152607 -0.0562758,0.0481657 -0.114727,0.0925732 -0.174959,0.132629 -0.306896,0.204235 -0.660177,0.3065 -1.05856,0.3065 -0.268324,0 -0.518746,-0.0497482 -0.750476,-0.149245l0.000395612 -0.00098903c-0.236477,-0.10187 -0.444371,-0.251411 -0.623583,-0.448129 -0.181388,-0.199289 -0.316292,-0.441008 -0.403821,-0.725354 -0.0784301,-0.254576 -0.117892,-0.537241 -0.117892,-0.847994z"/>
    <path id="_681894304" class="fil0" d="M26.3189 27.5544c0,0.857884 -0.224213,1.63566 -0.672639,2.32956l0 0.00138464c-0.0603308,0.0938589 -0.127585,0.188608 -0.201465,0.28395 -0.0654738,0.0844631 -0.141431,0.173476 -0.227477,0.266346 -0.403623,0.435865 -0.906149,0.789938 -1.50629,1.06212 -0.408469,0.185146 -0.85284,0.324402 -1.33341,0.416777 -0.473152,0.0909907 -0.976469,0.136684 -1.51015,0.136684 -0.639309,0 -1.23035,-0.0621111 -1.77313,-0.186333 -0.555241,-0.12709 -1.05559,-0.319951 -1.50105,-0.578187l-0.00543966 -0.00267038c-0.317479,-0.188806 -0.607957,-0.410052 -0.870445,-0.664331 -0.259818,-0.251609 -0.49046,-0.53556 -0.690639,-0.852445l-0.00118684 0.000791224c-0.0515284,-0.0812982 -0.103255,-0.168827 -0.154486,-0.261994 -0.0476712,-0.0868368 -0.0926721,-0.175652 -0.134508,-0.265752 -0.219169,-0.472954 -0.328852,-0.942051 -0.328852,-1.4067l0 -0.00168135 0.00267038 0c0.000296709,-0.239444 0.0426272,-0.462965 0.126101,-0.668287l0.00267038 0c0.020374,-0.0498471 0.0352095,-0.084562 0.0433195,-0.101376 0.0824851,-0.169915 0.192762,-0.325589 0.329644,-0.466525 0.17041,-0.175058 0.364853,-0.307292 0.583231,-0.395711 0.209971,-0.0850566 0.441107,-0.12798 0.69331,-0.12798l0 -0.00267038c0.210564,0 0.409656,0.0364952 0.597868,0.108101l0.00267038 0c0.185938,0.0709134 0.356545,0.177729 0.512219,0.318764l0.0107804 0.00811004c0.132431,0.124123 0.252104,0.272181 0.358523,0.44358l0 0.00267038c0.0993975,0.160223 0.187619,0.338248 0.264071,0.533779l-0.000395612 0.000197806c0.067254,0.167146 0.13708,0.320841 0.209674,0.46069 0.0658694,0.127189 0.136585,0.244983 0.21185,0.353183l0.00811004 0.0107804 0.000593418 0.000890127 -0.00128574 0.000791224c0.0123629,0.0172091 0.0252203,0.0349127 0.0390667,0.052023 0.0137475,0.0169124 0.0311544,0.0364952 0.052023,0.0584517l0.00267038 0.00276928c0.10365,0.109683 0.23618,0.206707 0.39581,0.290181l0.00098903 0.000593418 0.000296709 9.8903e-005c0.0197806,0.0099892 0.04688,0.0221543 0.0818917,0.0362974 0.0282863,0.0113738 0.0620122,0.02344 0.101277,0.035704 0.202652,0.0635946 0.457723,0.0959359 0.765905,0.0959359 0.29661,0 0.559593,-0.0329347 0.788751,-0.0986063 0.209872,-0.060133 0.393535,-0.148948 0.550395,-0.265851l0.00118684 0.00158245 0 -0.00247257c0.0482647,-0.0360007 0.0880236,-0.0684409 0.118684,-0.0969249 0.0341215,-0.031649 0.0650782,-0.0637924 0.0923754,-0.0960348 0.122936,-0.144992 0.184751,-0.314413 0.184751,-0.507867l0 -0.00197806 0.00267038 0c-9.8903e-005,-0.114134 -0.0159234,-0.213729 -0.0473745,-0.297797l-0.0157256 -0.0341215c-0.0253192,-0.0559791 -0.0600341,-0.106815 -0.103453,-0.151717l-0.00158245 -0.00158245 -0.00217587 -0.00257148c-0.0145387,-0.0144398 -0.0373853,-0.0352095 -0.0673529,-0.0615177 -0.0429239,-0.037682 -0.0678474,-0.0592429 -0.0741772,-0.0640891 -0.142025,-0.107804 -0.316292,-0.196718 -0.52112,-0.265357l0.000197806 -0.000593418 -0.00464844 0c-0.0206707,-0.00702211 -0.0742761,-0.0243301 -0.155871,-0.0501438 -0.0802103,-0.0253192 -0.135497,-0.0425283 -0.173773,-0.0539021l0.000197806 -0.000791224c-0.31283,-0.092771 -0.6942,-0.190784 -1.1448,-0.294236l-0.00257148 -0.000593418 -0.00267038 0c-0.0646825,-0.0151322 -0.184058,-0.0450998 -0.366337,-0.0919798 -0.166948,-0.0429239 -0.284049,-0.0739794 -0.352886,-0.0933644 -0.598264,-0.168926 -1.12383,-0.358523 -1.57394,-0.56622l-0.00267038 0c-0.332314,-0.154981 -0.638814,-0.344776 -0.918809,-0.568692 -0.278313,-0.222631 -0.520724,-0.475031 -0.72664,-0.756707l-0.00128574 0.00098903c-0.217685,-0.297995 -0.380678,-0.630408 -0.488581,-0.997041 -0.104936,-0.356446 -0.157454,-0.739003 -0.157454,-1.14757 0,-0.391952 0.0554846,-0.770059 0.16675,-1.13372 0.111266,-0.363468 0.277522,-0.703596 0.499064,-1.01959l0.00168135 -0.0032638 -0.000890127 -0.000593418 0.00375831 -0.00534076 0.000890127 -0.00168135 0.000791224 -0.00108793 0.000197806 0.000197806c0.060133,-0.0847598 0.124519,-0.167542 0.193059,-0.248246 0.068342,-0.080507 0.142816,-0.160618 0.223026,-0.239741 0.390073,-0.385227 0.872819,-0.694398 1.44616,-0.927018 0.386216,-0.156662 0.804774,-0.273566 1.25498,-0.350809 0.442393,-0.0757597 0.911885,-0.11364 1.40798,-0.11364l0.00474734 0 0 0.00267038c0.407184,0.000197806 0.782224,0.0252203 1.12463,0.0744739 0.066265,0.00949469 0.123233,0.0184949 0.172289,0.0268027 0.292951,0.0502427 0.569582,0.119475 0.829301,0.2074 0.302643,0.103551 0.584517,0.225894 0.845818,0.367919 0.265752,0.144497 0.504108,0.306896 0.715464,0.487888l0.000197806 -0.000197806 0.00128574 0.00108793 0.00267038 0.00267038c0.0381765,0.0324402 0.0922765,0.0814961 0.163487,0.147959l0.00128574 -0.00138464c0.0510339,0.0475723 0.103354,0.0991997 0.156366,0.153794 0.267434,0.27584 0.476416,0.566318 0.626748,0.869456l0.00267038 0.00267038c0.101573,0.208685 0.17941,0.416876 0.232224,0.624869l0 0.00276928c0.0537043,0.211751 0.0811004,0.428151 0.0811004,0.649496l0.00267038 0 0 0.00168135 -0.00267038 0c-0.000296709,0.231136 -0.0426272,0.452679 -0.1262,0.66354 -0.0138464,0.0348138 -0.0284841,0.0687376 -0.0433195,0.100683 -0.0799136,0.170707 -0.182872,0.327666 -0.307984,0.469888l-0.00158245 -0.00138464 -0.00207696 0.00257148c-0.0503416,0.0569681 -0.0972216,0.105431 -0.140146,0.144398 -0.0470778,0.0430228 -0.0999909,0.0854522 -0.157948,0.126991l0.000890127 0.00128574c-0.287907,0.206114 -0.617056,0.310259 -0.983194,0.310259 -0.207301,0 -0.401348,-0.0299676 -0.582637,-0.0899028l-0.000791224 0.00247257c-0.20107,-0.0664628 -0.375238,-0.170311 -0.523197,-0.311347l-0.000197806 0.000197806c-0.109387,-0.102958 -0.217389,-0.23262 -0.323512,-0.387106 -0.091782,-0.133519 -0.186432,-0.292258 -0.283357,-0.47513l-0.0107804 -0.0188905c-0.0944523,-0.193652 -0.192168,-0.359512 -0.293544,-0.496592 -0.0956392,-0.129365 -0.199685,-0.241027 -0.312434,-0.334292l-0.00267038 -0.00276928c-0.0737816,-0.0615177 -0.181784,-0.110672 -0.323215,-0.147069 -0.18208,-0.0467811 -0.417074,-0.0702211 -0.704288,-0.0702211 -0.252895,0 -0.475921,0.0262093 -0.668782,0.0786279 -0.175652,0.0477701 -0.323907,0.115123 -0.443975,0.20196l0 0.00276928c-0.114035,0.0816939 -0.193652,0.161311 -0.238653,0.238554 -0.0330336,0.0568692 -0.0497482,0.121156 -0.0497482,0.192564 0,0.052023 0.00534076,0.0953425 0.0160223,0.129365 0.00929688,0.029572 0.021363,0.0543966 0.0360996,0.0737816l0.00267038 0.00267038 0.000593418 0.000791224 0.00267038 0 0.0256159 0.0345171c0.00969249,0.0112749 0.0202751,0.0227477 0.03155,0.0341215l0.00276928 0.00267038c0.0655727,0.0666606 0.152409,0.129563 0.259225,0.188113 0.0955403,0.0511328 0.190092,0.0972216 0.283159,0.136684 0.0926721,0.0392645 0.184355,0.0729904 0.273961,0.0995953l0.00267038 0 0.00197806 0.000593418 -0.000395612 0.00148354 0.0969249 0.0281873 0.000296709 -0.00108793 0.125409 0.0353084 -0.000197806 0.000692321c0.195531,0.054001 0.492834,0.13164 0.899127,0.2344 0.351798,0.0828807 0.683815,0.168531 0.994964,0.257346 0.303434,0.0865401 0.605484,0.182575 0.906742,0.2885l-0.000296709 0.000791224c0.314413,0.108694 0.594901,0.224708 0.842258,0.347743 0.258829,0.128772 0.50124,0.273763 0.727629,0.434283l0.000296709 -0.000494515 0.0066265 0.00445063 0.000395612 0.000197806 0.000296709 0.000197806c0.0562758,0.039759 0.117892,0.0871335 0.184157,0.140739l0.000197806 -0.000296709c0.0510339,0.0412425 0.111958,0.094848 0.181586,0.159333l0.00276928 0c0.300665,0.279203 0.54634,0.605583 0.737915,0.976172l-0.00098903 0.000494515 0.00217587 0.00445063c0.0400557,0.0784301 0.0761553,0.155377 0.107211,0.230444l0.000890127 -0.000395612c0.0322424,0.0773421 0.06221,0.15775 0.0896061,0.241027l0.000692321 -0.000197806c0.134607,0.408667 0.202652,0.866489 0.202652,1.37297z"/>
   </g>
   <path id="_151752224" class="fil0" d="M46.4959 21.6594l-1.9566 0 0 8.01638c0,0.677584 -0.172981,1.2083 -0.518845,1.58433l-0.00108793 -0.00098903 0 0.00217587c-0.0480668,0.0522208 -0.100782,0.102859 -0.157256,0.15142 -0.0619133,0.0532098 -0.118782,0.0971227 -0.170509,0.131541l-0.00128574 -0.00187916c-0.306401,0.204037 -0.655727,0.305116 -1.04639,0.305116l-0.00168135 0 0 -0.00267038c-0.271093,-0.000296709 -0.522702,-0.0490559 -0.754234,-0.146475 -0.0472756,-0.0198795 -0.084562,-0.0369897 -0.113343,-0.0514295 -0.193355,-0.0981118 -0.365446,-0.229059 -0.51568,-0.392348l-0.00118684 -0.00128574 0 -0.00267038c-0.0555835,-0.0607264 -0.105134,-0.122145 -0.147662,-0.183663 -0.0414403,-0.0599352 -0.0812982,-0.127387 -0.119673,-0.201861l-0.00128574 0.000692321c-0.169124,-0.328061 -0.254576,-0.725453 -0.254576,-1.19l0 -8.01638 -1.9565 0 -0.00267038 0 0 -0.00267038c-0.27861,-0.000197806 -0.524779,-0.0325391 -0.738311,-0.0961337l0.000197806 -0.000791224c-0.0377809,-0.0112749 -0.0750674,-0.0237367 -0.110969,-0.0367919l-0.00267038 0c-0.205026,-0.0750674 -0.38226,-0.180498 -0.531999,-0.315599l0 -0.00267038c-0.179806,-0.162498 -0.314413,-0.350611 -0.404315,-0.565033 -0.086639,-0.206806 -0.129761,-0.430525 -0.129761,-0.671848l0 -0.00178025 0.00267038 0c0.000296709,-0.253192 0.0450998,-0.483042 0.133618,-0.688266 0.0121651,-0.0283852 0.0292753,-0.0636935 0.0521219,-0.107112l0.00108793 0.000593418c0.0932655,-0.177432 0.216499,-0.331819 0.369304,-0.462273l0.000197806 0.000296709c0.179608,-0.154882 0.39304,-0.268719 0.63921,-0.341512 0.219268,-0.0648804 0.460196,-0.0971227 0.722288,-0.0971227l7.71779 0c0.273665,0 0.521515,0.0330336 0.744245,0.0991997 0.255862,0.0760564 0.474141,0.19652 0.656023,0.361095l0.00118684 0.00118684 0 -9.8903e-005c0.0512317,0.0464844 0.096826,0.0923754 0.136288,0.137574 0.0411436,0.0470778 0.0810015,0.0991997 0.119079,0.155377l0.00267038 0c0.184355,0.272774 0.27772,0.587879 0.27772,0.942842 0,0.243598 -0.0465833,0.471075 -0.138464,0.682628l-0.00098903 -0.000395612c-0.0943534,0.216993 -0.230048,0.403425 -0.405799,0.560088l-0.000791224 -0.000890127 -0.00583528 0.00474734c-0.0554846,0.0484625 -0.11087,0.0909907 -0.166058,0.127486 -0.0565725,0.0374842 -0.117002,0.0721003 -0.180795,0.103551 -0.288401,0.142321 -0.634364,0.214323 -1.03848,0.214323z"/>
   <g>
    <path id="_679874432" class="fil0" d="M57.1238 32.6133l-0.00178025 0 0 -0.00267038c-0.249038,-0.000296709 -0.484822,-0.0421327 -0.706563,-0.124914 -0.0796169,-0.0297698 -0.151915,-0.0616166 -0.216696,-0.0952436l-0.00276928 -0.00267038c-0.140838,-0.0734849 -0.272577,-0.16319 -0.394623,-0.268719l-0.00118684 -0.00108793c-0.0559791,-0.0484625 -0.10998,-0.102068 -0.161706,-0.160322 -0.0551879,-0.0621111 -0.101771,-0.120958 -0.13886,-0.175849 -0.20552,-0.304127 -0.307588,-0.666804 -0.307588,-1.08625l-0.00267038 0c0,-0.262884 0.0481657,-0.509746 0.144102,-0.740882 0.0957381,-0.230543 0.238356,-0.437646 0.426964,-0.6221 0.183762,-0.17941 0.392843,-0.316094 0.627342,-0.409755 0.23262,-0.092771 0.477998,-0.139354 0.736036,-0.139354l0.00178025 0 0 0.00267038c0.264269,0.000296709 0.509251,0.0461877 0.733464,0.136981 0.0201762,0.00811004 0.0554846,0.0245279 0.109683,0.050935l0.000494515 -0.00098903c0.190784,0.0926721 0.361787,0.214619 0.51212,0.364952 0.182377,0.182377 0.32094,0.389381 0.415195,0.6221 0.0929688,0.228861 0.139354,0.473844 0.139354,0.735443l0 0.00187916 -0.00267038 0c-0.000197806,0.280588 -0.0482647,0.538329 -0.143805,0.771344l-0.00108793 -0.000494515c-0.0221543,0.0541988 -0.0386711,0.0919798 -0.0502427,0.11542l0 0.00267038c-0.0980128,0.196619 -0.23351,0.371974 -0.405898,0.524581 -0.187322,0.166058 -0.38948,0.291071 -0.607363,0.374644l-0.000890127 -0.00237367c-0.225598,0.0867379 -0.458811,0.130057 -0.700134,0.130057z"/>
    <path id="_679874288" class="fil0" d="M52.4428 21.6136c0,-0.323413 0.0536054,-0.653254 0.160322,-0.989129 0.102365,-0.322127 0.250917,-0.639111 0.444668,-0.95026l0.00178025 0.00108793 0.00158245 -0.00207696c0.06221,-0.0992986 0.121848,-0.187322 0.178421,-0.263379 0.0729904,-0.0983096 0.139453,-0.181685 0.198993,-0.250126 0.353677,-0.405997 0.79696,-0.755421 1.32777,-1.04649l0.00267038 0c0.377809,-0.206114 0.780938,-0.359216 1.21008,-0.459404 0.425678,-0.0994964 0.876577,-0.149047 1.35289,-0.149047l0 0.00267038c0.445459,0 0.864313,0.0408469 1.25646,0.122739 0.40481,0.084562 0.784004,0.212246 1.13719,0.383051l-0.000494515 0.00108793c0.358919,0.17219 0.675903,0.375337 0.95115,0.608649 0.284049,0.240829 0.527054,0.514394 0.729113,0.820103l0.00276928 0.00267038c0.201465,0.307292 0.353084,0.628726 0.45436,0.963908 0.102167,0.338149 0.1533,0.688266 0.1533,1.05035 0,0.28039 -0.0301654,0.54901 -0.089705,0.805565l0 0.00267038c-0.0598363,0.257444 -0.152113,0.501933 -0.276137,0.733267l-0.00267038 0.00543966 -0.000593418 0.00108793c-0.0417371,0.0767487 -0.0728915,0.132332 -0.0924743,0.165366 -0.0241323,0.0406491 -0.0586495,0.0956392 -0.10187,0.162399 -0.177036,0.273467 -0.37504,0.518548 -0.593912,0.735047l-0.00267038 0.00276928c-0.1172,0.114727 -0.306303,0.290973 -0.562956,0.525669 -0.249532,0.228169 -0.532098,0.483141 -0.85284,0.770355l0.00118684 0.00128574c-0.0921776,0.0839686 -0.168234,0.155574 -0.227378,0.214521l9.8903e-005 9.8903e-005 -0.00128574 0.00118684 -0.00138464 0.00148354 -9.8903e-005 -0.000197806c-0.0516274,0.0517263 -0.104738,0.109486 -0.159827,0.172685l-0.00148354 -0.00128574c-0.0398579,0.0460888 -0.0746717,0.0901006 -0.104046,0.131442l-0.00148354 -0.00108793c-0.0199784,0.0282863 -0.0355062,0.0541988 -0.0467811,0.0765509l-0.00534076 0.0135497c-0.0174069,0.0331325 -0.0320446,0.0646825 -0.0439129,0.0942545 -0.013253,0.0332314 -0.0238356,0.06221 -0.03155,0.0879247l0.000593418 0.000197806 -0.000791224 0.00296709 0.00138464 0.000395612 -0.000593418 0.00207696 -0.00138464 -0.000395612 -0.0123629 0.0446052 -9.8903e-005 0 -0.011176 0.0426272 0.00118684 0.000296709c-0.0241323,0.0950458 -0.0571659,0.237961 -0.0987052,0.428547l-0.00207696 -0.000395612c-0.0831774,0.433788 -0.26328,0.771641 -0.540307,1.01306 -0.292852,0.254972 -0.661958,0.382161 -1.10791,0.382161l-0.00178025 0 0 -0.00267038c-0.227081,-0.000296709 -0.440613,-0.0388689 -0.638617,-0.115321 -0.0421327,-0.016319 -0.0746717,-0.0298687 -0.0979139,-0.0405502 -0.162201,-0.0753641 -0.313325,-0.179608 -0.452283,-0.312533l-0.00267038 0c-0.176245,-0.168728 -0.3065,-0.37415 -0.391458,-0.616561 -0.0752652,-0.214817 -0.112453,-0.450206 -0.112453,-0.707255 0,-0.267631 0.0211652,-0.520922 0.0634957,-0.759575 0.0439129,-0.247356 0.112453,-0.480965 0.205421,-0.699837 0.0874302,-0.205718 0.187026,-0.396997 0.298786,-0.572945 0.114629,-0.1803 0.245477,-0.350413 0.39215,-0.50935l0.0189894 -0.0216598 0.000593418 -0.000593418 0.000494515 0.000494515c0.0252203,-0.0266049 0.0582539,-0.0606275 0.0973205,-0.100881 0.036693,-0.0377809 0.0767487,-0.0784301 0.120958,-0.122442 0.208389,-0.207795 0.462569,-0.443877 0.763234,-0.706662l-0.00118684 -0.00128574c0.237367,-0.208784 0.389678,-0.343688 0.442393,-0.391854 0.105529,-0.0965293 0.198894,-0.185047 0.281676,-0.267928l0 -0.00267038 0.000890127 -0.000890127 0.00534076 -0.00276928c0.0126596,-0.0124618 0.0278906,-0.0280884 0.0451987,-0.0465833 0.0189894,-0.0202751 0.0333303,-0.0359018 0.0422316,-0.0462866 0.0682431,-0.0790235 0.129563,-0.167739 0.183564,-0.265752l0.00543966 -0.0108793 0.00118684 -0.00207696 0.00098903 0.000593418 0.0152311 -0.0288797 -0.00207696 -0.00098903c0.00771443,-0.0167146 0.013253,-0.0290775 0.0161212,-0.036693 0.0237367,-0.0623089 0.035704,-0.131838 0.035704,-0.208092 0,-0.237466 -0.0881226,-0.435964 -0.263972,-0.599649l0.00108793 -0.00118684c-0.09376,-0.0846609 -0.200674,-0.148948 -0.321039,-0.19207 -0.128772,-0.0461877 -0.283852,-0.0695288 -0.465536,-0.0695288l0 -0.00267038c-0.218872,0 -0.404612,0.0261104 -0.556725,0.0782323l-0.00276928 0c-0.113442,0.03877 -0.20107,0.0913863 -0.262983,0.157256l0.00138464 0.00128574 -0.00830785 0.00820895 -0.00702211 0.00979139 -0.000890127 0.000890127 -0.000890127 -0.000890127c-0.0263082,0.0287808 -0.0470778,0.0529131 -0.0626056,0.0724959l0.00178025 0.00138464c-0.0347149,0.0441107 -0.0620122,0.0808037 -0.0811004,0.10909l0 0.00267038c-0.150629,0.223323 -0.285236,0.510043 -0.402337,0.858873l0.00178025 0.000494515 -0.000593418 0.00197806 -0.00267038 0.00267038c-0.0628034,0.205619 -0.141629,0.389579 -0.235884,0.55089 -0.104837,0.179311 -0.229455,0.332314 -0.373161,0.458415 -0.307094,0.269412 -0.675507,0.40481 -1.10534,0.40481 -0.246268,0 -0.476515,-0.0453965 -0.690936,-0.135398 -0.212938,-0.0894083 -0.405205,-0.222828 -0.577099,-0.39937l-0.00267038 -0.00267038c-0.160223,-0.166652 -0.283555,-0.343886 -0.36871,-0.532395 -0.0940567,-0.207795 -0.141431,-0.423305 -0.141431,-0.646825z"/>
   </g>
  </g>
 </g>
</svg>
